<svg width="108" height="26" viewBox="0 0 108 26" fill="none" xmlns="http://www.w3.org/2000/svg">
<path d="M39.52 17.112C39.3173 17.112 39.152 17.064 39.024 16.968C38.896 16.872 38.7947 16.728 38.72 16.536L34.32 6.472C34.2453 6.29067 34.224 6.14133 34.256 6.024C34.288 5.896 34.3573 5.79467 34.464 5.72C34.5813 5.64533 34.7147 5.608 34.864 5.608C35.0667 5.608 35.216 5.656 35.312 5.752C35.4187 5.83733 35.504 5.96533 35.568 6.136L39.792 15.944H39.28L43.488 6.12C43.5627 5.96 43.6533 5.83733 43.76 5.752C43.8667 5.656 44.016 5.608 44.208 5.608C44.3573 5.608 44.48 5.64533 44.576 5.72C44.6827 5.79467 44.7467 5.896 44.768 6.024C44.8 6.152 44.7787 6.30133 44.704 6.472L40.304 16.536C40.2293 16.728 40.128 16.872 40 16.968C39.8827 17.064 39.7227 17.112 39.52 17.112ZM47.2623 17.112C47.0489 17.112 46.8889 17.0533 46.7823 16.936C46.6756 16.8187 46.6223 16.6533 46.6223 16.44V6.264C46.6223 6.05067 46.6756 5.89067 46.7823 5.784C46.8889 5.66667 47.0489 5.608 47.2623 5.608C47.4649 5.608 47.6249 5.66667 47.7423 5.784C47.8596 5.89067 47.9183 6.05067 47.9183 6.264V12.68H47.9503L51.2303 9.544C51.3796 9.40533 51.5076 9.29867 51.6143 9.224C51.7316 9.14933 51.8863 9.112 52.0783 9.112C52.2489 9.112 52.3823 9.16 52.4783 9.256C52.5743 9.34133 52.6169 9.45333 52.6063 9.592C52.6063 9.72 52.5423 9.85867 52.4143 10.008L48.9263 13.32V12.616L52.7183 16.184C52.8676 16.3333 52.9423 16.4773 52.9423 16.616C52.9423 16.7547 52.8889 16.872 52.7823 16.968C52.6863 17.064 52.5583 17.112 52.3983 17.112C52.2063 17.112 52.0516 17.0747 51.9343 17C51.8169 16.9147 51.6729 16.792 51.5023 16.632L47.9503 13.352H47.9183V16.44C47.9183 16.888 47.6996 17.112 47.2623 17.112ZM57.6511 17.144C56.8938 17.144 56.2378 16.9787 55.6831 16.648C55.1285 16.3173 54.6965 15.8533 54.3871 15.256C54.0885 14.648 53.9391 13.9333 53.9391 13.112C53.9391 12.4933 54.0245 11.9387 54.1951 11.448C54.3658 10.9467 54.6165 10.52 54.9471 10.168C55.2778 9.816 55.6671 9.54933 56.1151 9.368C56.5738 9.176 57.0858 9.08 57.6511 9.08C58.4085 9.08 59.0645 9.24533 59.6191 9.576C60.1738 9.90667 60.6005 10.376 60.8991 10.984C61.2085 11.5813 61.3631 12.2907 61.3631 13.112C61.3631 13.7307 61.2778 14.2853 61.1071 14.776C60.9365 15.2667 60.6858 15.6933 60.3551 16.056C60.0245 16.408 59.6298 16.68 59.1711 16.872C58.7231 17.0533 58.2165 17.144 57.6511 17.144ZM57.6511 16.104C58.1311 16.104 58.5525 15.9867 58.9151 15.752C59.2778 15.5173 59.5551 15.176 59.7471 14.728C59.9498 14.28 60.0511 13.7413 60.0511 13.112C60.0511 12.1413 59.8325 11.4 59.3951 10.888C58.9685 10.376 58.3871 10.12 57.6511 10.12C57.1605 10.12 56.7338 10.2373 56.3711 10.472C56.0191 10.696 55.7418 11.032 55.5391 11.48C55.3471 11.9173 55.2511 12.4613 55.2511 13.112C55.2511 14.072 55.4698 14.8133 55.9071 15.336C56.3445 15.848 56.9258 16.104 57.6511 16.104ZM63.9498 17.112C63.7364 17.112 63.5764 17.0533 63.4698 16.936C63.3631 16.8187 63.3098 16.6533 63.3098 16.44V9.768C63.3098 9.55467 63.3631 9.39467 63.4698 9.288C63.5764 9.17067 63.7311 9.112 63.9338 9.112C64.1364 9.112 64.2911 9.17067 64.3978 9.288C64.5151 9.39467 64.5738 9.55467 64.5738 9.768V11.144L64.3978 10.952C64.6218 10.3333 64.9844 9.86933 65.4858 9.56C65.9978 9.24 66.5844 9.08 67.2458 9.08C67.8644 9.08 68.3764 9.192 68.7818 9.416C69.1978 9.64 69.5071 9.98133 69.7098 10.44C69.9124 10.888 70.0138 11.4587 70.0138 12.152V16.44C70.0138 16.6533 69.9551 16.8187 69.8378 16.936C69.7311 17.0533 69.5764 17.112 69.3738 17.112C69.1604 17.112 68.9951 17.0533 68.8778 16.936C68.7711 16.8187 68.7178 16.6533 68.7178 16.44V12.232C68.7178 11.5067 68.5738 10.9787 68.2858 10.648C68.0084 10.3067 67.5604 10.136 66.9418 10.136C66.2271 10.136 65.6564 10.36 65.2298 10.808C64.8138 11.2453 64.6058 11.832 64.6058 12.568V16.44C64.6058 16.888 64.3871 17.112 63.9498 17.112ZM75.5235 17.144C74.9155 17.144 74.4035 17.0373 73.9875 16.824C73.5822 16.6 73.2782 16.28 73.0755 15.864C72.8728 15.4373 72.7715 14.92 72.7715 14.312V10.232H71.6995C71.5182 10.232 71.3795 10.1893 71.2835 10.104C71.1875 10.008 71.1395 9.88 71.1395 9.72C71.1395 9.56 71.1875 9.43733 71.2835 9.352C71.3795 9.26667 71.5182 9.224 71.6995 9.224H72.7715V7.384C72.7715 7.17067 72.8302 7.01067 72.9475 6.904C73.0648 6.78667 73.2248 6.728 73.4275 6.728C73.6302 6.728 73.7848 6.78667 73.8915 6.904C74.0088 7.01067 74.0675 7.17067 74.0675 7.384V9.224H76.0835C76.2648 9.224 76.4035 9.26667 76.4995 9.352C76.5955 9.43733 76.6435 9.56 76.6435 9.72C76.6435 9.88 76.5955 10.008 76.4995 10.104C76.4035 10.1893 76.2648 10.232 76.0835 10.232H74.0675V14.184C74.0675 14.792 74.1955 15.256 74.4515 15.576C74.7075 15.8853 75.1235 16.04 75.6995 16.04C75.9022 16.04 76.0728 16.0187 76.2115 15.976C76.3608 15.9333 76.4835 15.912 76.5795 15.912C76.6755 15.9013 76.7555 15.9333 76.8195 16.008C76.8835 16.0827 76.9155 16.2107 76.9155 16.392C76.9155 16.52 76.8888 16.6373 76.8355 16.744C76.7928 16.8507 76.7128 16.9253 76.5955 16.968C76.4675 17.0107 76.2968 17.048 76.0835 17.08C75.8808 17.1227 75.6942 17.144 75.5235 17.144ZM80.4453 17.144C79.9119 17.144 79.4319 17.0427 79.0053 16.84C78.5893 16.6267 78.2586 16.3387 78.0133 15.976C77.7679 15.6133 77.6453 15.208 77.6453 14.76C77.6453 14.184 77.7893 13.7307 78.0773 13.4C78.3759 13.0693 78.8613 12.8347 79.5333 12.696C80.2159 12.5573 81.1439 12.488 82.3173 12.488H83.0373V13.336H82.3333C81.4693 13.336 80.7866 13.3787 80.2853 13.464C79.7946 13.5387 79.4479 13.672 79.2453 13.864C79.0533 14.056 78.9573 14.328 78.9573 14.68C78.9573 15.1173 79.1066 15.4747 79.4053 15.752C79.7146 16.0293 80.1306 16.168 80.6533 16.168C81.0799 16.168 81.4533 16.0667 81.7733 15.864C82.1039 15.6613 82.3599 15.384 82.5413 15.032C82.7333 14.68 82.8293 14.2747 82.8293 13.816V11.992C82.8293 11.3307 82.6959 10.856 82.4293 10.568C82.1626 10.2693 81.7253 10.12 81.1173 10.12C80.7439 10.12 80.3706 10.168 79.9973 10.264C79.6239 10.36 79.2293 10.5147 78.8133 10.728C78.6639 10.8027 78.5359 10.8293 78.4293 10.808C78.3226 10.776 78.2373 10.7173 78.1733 10.632C78.1093 10.5467 78.0719 10.4507 78.0613 10.344C78.0506 10.2267 78.0719 10.1147 78.1253 10.008C78.1893 9.90133 78.2853 9.816 78.4133 9.752C78.8826 9.51733 79.3466 9.34667 79.8053 9.24C80.2639 9.13333 80.7013 9.08 81.1173 9.08C81.7893 9.08 82.3439 9.192 82.7813 9.416C83.2186 9.62933 83.5439 9.96 83.7573 10.408C83.9706 10.8453 84.0773 11.4107 84.0773 12.104V16.44C84.0773 16.6533 84.0239 16.8187 83.9173 16.936C83.8213 17.0533 83.6773 17.112 83.4853 17.112C83.2826 17.112 83.1279 17.0533 83.0213 16.936C82.9146 16.8187 82.8613 16.6533 82.8613 16.44V15.192H83.0053C82.9199 15.5973 82.7546 15.944 82.5093 16.232C82.2746 16.52 81.9813 16.744 81.6293 16.904C81.2773 17.064 80.8826 17.144 80.4453 17.144ZM87.1216 17.112C86.9083 17.112 86.7483 17.0533 86.6416 16.936C86.535 16.8187 86.4816 16.6533 86.4816 16.44V6.264C86.4816 6.05067 86.535 5.89067 86.6416 5.784C86.7483 5.66667 86.9083 5.608 87.1216 5.608C87.3243 5.608 87.4843 5.66667 87.6016 5.784C87.719 5.89067 87.7776 6.05067 87.7776 6.264V12.68H87.8096L91.0896 9.544C91.239 9.40533 91.367 9.29867 91.4736 9.224C91.591 9.14933 91.7456 9.112 91.9376 9.112C92.1083 9.112 92.2416 9.16 92.3376 9.256C92.4336 9.34133 92.4763 9.45333 92.4656 9.592C92.4656 9.72 92.4016 9.85867 92.2736 10.008L88.7856 13.32V12.616L92.5776 16.184C92.727 16.3333 92.8016 16.4773 92.8016 16.616C92.8016 16.7547 92.7483 16.872 92.6416 16.968C92.5456 17.064 92.4176 17.112 92.2576 17.112C92.0656 17.112 91.911 17.0747 91.7936 17C91.6763 16.9147 91.5323 16.792 91.3616 16.632L87.8096 13.352H87.7776V16.44C87.7776 16.888 87.559 17.112 87.1216 17.112ZM97.4141 17.144C96.8061 17.144 96.2941 17.0373 95.8781 16.824C95.4728 16.6 95.1688 16.28 94.9661 15.864C94.7635 15.4373 94.6621 14.92 94.6621 14.312V10.232H93.5901C93.4088 10.232 93.2701 10.1893 93.1741 10.104C93.0781 10.008 93.0301 9.88 93.0301 9.72C93.0301 9.56 93.0781 9.43733 93.1741 9.352C93.2701 9.26667 93.4088 9.224 93.5901 9.224H94.6621V7.384C94.6621 7.17067 94.7208 7.01067 94.8381 6.904C94.9555 6.78667 95.1155 6.728 95.3181 6.728C95.5208 6.728 95.6755 6.78667 95.7821 6.904C95.8995 7.01067 95.9581 7.17067 95.9581 7.384V9.224H97.9741C98.1555 9.224 98.2941 9.26667 98.3901 9.352C98.4861 9.43733 98.5341 9.56 98.5341 9.72C98.5341 9.88 98.4861 10.008 98.3901 10.104C98.2941 10.1893 98.1555 10.232 97.9741 10.232H95.9581V14.184C95.9581 14.792 96.0861 15.256 96.3421 15.576C96.5981 15.8853 97.0141 16.04 97.5901 16.04C97.7928 16.04 97.9635 16.0187 98.1021 15.976C98.2515 15.9333 98.3741 15.912 98.4701 15.912C98.5661 15.9013 98.6461 15.9333 98.7101 16.008C98.7741 16.0827 98.8061 16.2107 98.8061 16.392C98.8061 16.52 98.7795 16.6373 98.7261 16.744C98.6835 16.8507 98.6035 16.9253 98.4861 16.968C98.3581 17.0107 98.1875 17.048 97.9741 17.08C97.7715 17.1227 97.5848 17.144 97.4141 17.144ZM103.314 17.144C102.492 17.144 101.783 16.984 101.186 16.664C100.599 16.3333 100.14 15.8693 99.8098 15.272C99.4898 14.6747 99.3298 13.96 99.3298 13.128C99.3298 12.3173 99.4898 11.6133 99.8098 11.016C100.13 10.408 100.567 9.93333 101.122 9.592C101.687 9.25067 102.338 9.08 103.074 9.08C103.596 9.08 104.066 9.17067 104.482 9.352C104.898 9.52267 105.25 9.77333 105.538 10.104C105.836 10.4347 106.06 10.8347 106.21 11.304C106.37 11.7733 106.45 12.3013 106.45 12.888C106.45 13.0587 106.402 13.1867 106.306 13.272C106.21 13.3467 106.071 13.384 105.89 13.384H100.322V12.536H105.586L105.33 12.744C105.33 12.168 105.244 11.6827 105.074 11.288C104.903 10.8827 104.652 10.5733 104.322 10.36C104.002 10.1467 103.596 10.04 103.106 10.04C102.562 10.04 102.098 10.168 101.714 10.424C101.34 10.6693 101.058 11.016 100.866 11.464C100.674 11.9013 100.578 12.4133 100.578 13V13.096C100.578 14.0773 100.812 14.824 101.282 15.336C101.762 15.848 102.439 16.104 103.314 16.104C103.676 16.104 104.034 16.056 104.386 15.96C104.748 15.864 105.1 15.704 105.442 15.48C105.591 15.384 105.724 15.3413 105.842 15.352C105.97 15.352 106.071 15.3893 106.146 15.464C106.22 15.528 106.268 15.6133 106.29 15.72C106.322 15.816 106.311 15.9227 106.258 16.04C106.215 16.1573 106.124 16.2587 105.986 16.344C105.634 16.6 105.218 16.7973 104.738 16.936C104.258 17.0747 103.783 17.144 103.314 17.144Z" fill="#4F4F4F"/>
<rect width="26" height="26" rx="5.2" fill="#2787F5"/>
<path fill-rule="evenodd" clip-rule="evenodd" d="M6.85657 6.85657C5.84961 7.85757 5.84961 9.47823 5.84961 12.7136V13.2856C5.84961 16.521 5.84961 18.1417 6.85657 19.1427C7.85757 20.1496 9.47823 20.1496 12.7136 20.1496H13.2856C16.521 20.1496 18.1417 20.1496 19.1427 19.1427C20.1496 18.1417 20.1496 16.521 20.1496 13.2856V12.7136C20.1496 9.47823 20.1496 7.85757 19.1427 6.85657C18.1417 5.84961 16.521 5.84961 13.2856 5.84961H12.7136C9.47823 5.84961 7.85757 5.84961 6.85657 6.85657ZM8.26362 10.199C8.34108 13.917 10.2001 16.1514 13.4593 16.1514H13.644V14.0243C14.2189 14.0967 14.7596 14.3371 15.1984 14.7155C15.6372 15.0939 15.9546 15.5934 16.1107 16.1514H17.8029C17.629 15.509 17.3208 14.9108 16.8986 14.3962C16.4765 13.8816 15.9501 13.4624 15.354 13.1663C15.888 12.8421 16.3493 12.4113 16.7092 11.9008C17.069 11.3902 17.3197 10.8109 17.4454 10.199H15.9082C15.5745 11.3788 14.5854 12.4513 13.644 12.5526V10.199H12.1067V14.3222C11.1534 14.0839 9.94983 12.9279 9.89621 10.199H8.26362Z" fill="#FBFBFD"/>
</svg>
